# xmcd
#
# Track frame offsets:
#	150
#	5380
#	24333
#	43807
#	61054
#	78943
#	94156
#	111805
#	127293
#	145576
#	164218
#	182151
#	206041
#	235125
#
# Disc length: 3824 seconds
#
# Revision: 1
# Processed by: cddbd v1.5.2PL0 Copyright (c) Steve Scherf et al.
# Submitted via: audiograbber 1.83.01
#
DISCID=be0eee0e
DTITLE=Dawn McClain - Life is Beautiful
DYEAR=1900
DGENRE=
TTITLE0=Intro ft DJ Reggie Ward
TTITLE1=State Of Emotion
TTITLE2=My Life
TTITLE3=Hope ft OverComHer
TTITLE4=Tonight
TTITLE5=All Night
TTITLE6=Like Lovers Do
TTITLE7=Venting (bye-bye)
TTITLE8=All Of Me
TTITLE9=Monster
TTITLE10=Mind Games
TTITLE11=Can't Call It Love
TTITLE12=HIDDEN TRACK Sex Me ft Young Block
TTITLE13=Data Track
EXTD=
EXTT0=
EXTT1=
EXTT2=
EXTT3=
EXTT4=
EXTT5=
EXTT6=
EXTT7=
EXTT8=
EXTT9=
EXTT10=
EXTT11=
EXTT12=
EXTT13=
PLAYORDER=
